<svg xmlns="http://www.w3.org/2000/svg" viewBox="0 0 500 500"><g id="freepik--background-complete--inject-15"><path d="M458.24,276.2H309.55V57.94H458.24Zm-144.69-4H454.24V61.94H313.55Z" style="fill:#ebebeb"></path><rect x="381.84" y="62.99" width="4" height="211.21" style="fill:#ebebeb"></rect><rect x="305.92" y="66.03" width="155.95" height="5.57" style="fill:#ebebeb"></rect><rect x="305.92" y="72.29" width="155.95" height="5.57" style="fill:#ebebeb"></rect><rect x="305.92" y="78.56" width="155.95" height="5.57" style="fill:#ebebeb"></rect><rect x="305.92" y="84.83" width="155.95" height="5.57" style="fill:#ebebeb"></rect><rect x="305.92" y="91.09" width="155.95" height="5.57" style="fill:#ebebeb"></rect><rect x="305.92" y="97.36" width="155.95" height="5.57" style="fill:#ebebeb"></rect><rect x="305.92" y="103.63" width="155.95" height="5.57" style="fill:#ebebeb"></rect><rect x="305.92" y="109.89" width="155.95" height="5.57" style="fill:#ebebeb"></rect><rect x="305.92" y="116.16" width="155.95" height="5.57" style="fill:#ebebeb"></rect><rect x="448.99" y="64.9" width="1" height="128.39" style="fill:#263238"></rect><polygon points="451.26 197.94 447.71 197.94 448.61 192.84 450.38 192.84 451.26 197.94" style="fill:#263238"></polygon><rect x="452.59" y="64.9" width="1" height="175.73" style="fill:#263238"></rect><polygon points="454.87 244.38 451.32 244.38 452.21 239.28 453.98 239.28 454.87 244.38" style="fill:#263238"></polygon><rect x="299.71" y="57.16" width="168.36" height="11.65" style="fill:#dbdbdb"></rect><path d="M66,171.55c0-.84.11-3.07.11-4,0-4.07-1.45-5.9-5.24-6a2.68,2.68,0,1,1,0-5.35c3.79-.16,5.24-1.95,5.24-6.07,0-1-.11-3.18-.11-4,0-5.4,2.29-8.86,10.93-10.75a2.41,2.41,0,0,1,1.5,4.57c-5.41,1.67-6.19,3.4-6.19,7.19,0,1.11.12,2.95.12,4.12,0,4.35-2.12,6.47-5.8,7.64,3.73,1.22,5.8,3.29,5.8,7.63,0,1.18-.12,3-.12,4.13,0,3.79.78,5.52,6.19,7.19a2.41,2.41,0,0,1-1.5,4.57C68.28,180.47,66,177,66,171.55Z" style="fill:#ebebeb"></path><path d="M98.65,146.07c0,.84-.11,3.07-.11,4,0,4.12,1.51,5.91,5.3,6.07a2.68,2.68,0,1,1,0,5.35c-3.79.12-5.3,2-5.3,6,0,.95.11,3.18.11,4,0,5.46-2.28,8.92-10.92,10.81a2.4,2.4,0,0,1-1.45-4.57c5.35-1.67,6.13-3.4,6.13-7.19,0-1.12-.11-2.95-.11-4.13,0-4.34,2.12-6.46,5.8-7.63-3.74-1.23-5.8-3.29-5.8-7.64,0-1.17.11-3,.11-4.12,0-3.79-.78-5.52-6.13-7.19a2.4,2.4,0,0,1,1.45-4.57C96.37,137.21,98.65,140.67,98.65,146.07Z" style="fill:#ebebeb"></path><path d="M213.59,93.75a3.27,3.27,0,0,1-2.28,5.6,3.46,3.46,0,0,1-2.39-.93L194.34,83.63c-.16,0-.21-.16-.26-.31a.91.91,0,0,0-.16-.11,1.36,1.36,0,0,1-.15-.41.3.3,0,0,1-.16-.21c-.05-.1-.05-.26-.1-.31s-.1-.21-.1-.26v-.36c0-.11-.06-.16-.06-.31s.06-.21.06-.26v-.37c0-.1.1-.15.1-.2s.05-.26.1-.42.06,0,.06-.1a3.34,3.34,0,0,1,.25-.47.1.1,0,0,1,.11-.1.93.93,0,0,1,.31-.37l14.58-14.78a3.38,3.38,0,0,1,4.67,0,3.3,3.3,0,0,1,0,4.67l-12.3,12.4Z" style="fill:#ebebeb"></path><path d="M226.82,95.41l12.71-30.25a2.89,2.89,0,0,1,3.79-1.51,2.81,2.81,0,0,1,1.45,3.69l-12.71,30.3a2.88,2.88,0,0,1-2.65,1.71,2.38,2.38,0,0,1-1-.21A2.8,2.8,0,0,1,226.82,95.41Z" style="fill:#ebebeb"></path><path d="M269.88,83.21s0,.06-.05.06a4.07,4.07,0,0,1-.36.36L254.89,98.42a3.37,3.37,0,0,1-2.34.93,3.33,3.33,0,0,1-2.33-.93,3.28,3.28,0,0,1,0-4.67l12.29-12.4L250.22,69a3.28,3.28,0,0,1,0-4.67,3.38,3.38,0,0,1,4.67,0l14.58,14.78a3.1,3.1,0,0,1,.36.37c.05,0,.05.1.05.1a4.88,4.88,0,0,1,.26.47s.05,0,.05.1a2,2,0,0,0,.16.47c0,.05,0,.05,0,.15v.37s.05.2.05.26-.05.2-.05.26V82s0,0,0,.1a3.72,3.72,0,0,0-.16.47s-.05,0-.05.16S270,83,269.88,83.21Z" style="fill:#ebebeb"></path></g><g id="freepik--Shadow--inject-15"><ellipse cx="250" cy="426.67" rx="201.54" ry="16.06" style="fill:#ebebeb"></ellipse></g><g id="freepik--Chair--inject-15"><polygon points="440.04 407.23 318.92 407.23 343.07 266.75 433.64 266.75 440.04 407.23" style="fill:#dbdbdb"></polygon><polygon points="440.04 407.23 429.42 407.23 423.46 266.75 433.64 266.75 440.04 407.23" style="fill:#a6a6a6"></polygon></g><g id="freepik--Desk--inject-15"><polygon points="40.74 407.23 93.06 406.99 145.37 406.9 250 406.73 354.63 406.9 406.94 406.99 459.26 407.23 406.94 407.48 354.63 407.56 250 407.73 145.37 407.56 93.06 407.48 40.74 407.23" style="fill:#263238"></polygon></g><g id="freepik--Screens--inject-15"><rect x="55.06" y="57.16" width="99.38" height="63.4" style="fill:#fff"></rect><path d="M155.06,121.18H54.43V56.53H155.06Zm-99.38-1.25h98.13V57.79H55.68Z" style="fill:#ebebeb"></path><rect x="55.06" y="57.16" width="99.38" height="11.99" style="fill:#0CDB09"></rect><path d="M155.06,69.78H54.43V56.53H155.06ZM55.68,68.52h98.13V57.79H55.68Z" style="fill:#ebebeb"></path><path d="M66.31,63.24a3,3,0,1,1-3-3A3,3,0,0,1,66.31,63.24Z" style="fill:#a6a6a6"></path><path d="M78.63,63.24a3,3,0,1,1-3-3A3,3,0,0,1,78.63,63.24Z" style="fill:#ebebeb"></path><path d="M91,63.24a3,3,0,1,1-3-3A3,3,0,0,1,91,63.24Z" style="fill:#fff"></path><path d="M72.21,92.85a12.26,12.26,0,0,1,12.25-12,12.5,12.5,0,0,1,7.72,2.61,1.92,1.92,0,0,1-2.34,3,8.29,8.29,0,0,0-5.38-1.84,8.89,8.89,0,0,0-6,2.4A8.26,8.26,0,0,0,76,92.85a8.1,8.1,0,0,0,2.44,5.81,8.85,8.85,0,0,0,6,2.41,8.41,8.41,0,0,0,5.38-1.84,2,2,0,0,1,2.67.37,2,2,0,0,1-.33,2.67,12.5,12.5,0,0,1-7.72,2.61A12.21,12.21,0,0,1,72.21,92.85Z" style="fill:#ebebeb"></path><path d="M98.25,99.07a1.74,1.74,0,0,1,2.44-.24,10.87,10.87,0,0,0,6.38,2.57,7.21,7.21,0,0,0,4.17-1.23,3,3,0,0,0,1.44-2.41,1.94,1.94,0,0,0-.3-1.07,3.3,3.3,0,0,0-1-1,13.42,13.42,0,0,0-4.57-1.57h-.07a17.9,17.9,0,0,1-4.3-1.3,7.14,7.14,0,0,1-3.11-2.6,5.17,5.17,0,0,1-.77-2.74,6.21,6.21,0,0,1,2.67-4.88A9.92,9.92,0,0,1,107,80.83a13,13,0,0,1,7.28,2.68,1.72,1.72,0,0,1,.47,2.37,1.69,1.69,0,0,1-2.37.5c-1.71-1.14-3.34-2.14-5.38-2.14a6.44,6.44,0,0,0-3.74,1.13A2.68,2.68,0,0,0,102,87.48a1.57,1.57,0,0,0,.24.93,3,3,0,0,0,.9.87,11.39,11.39,0,0,0,4.17,1.47h.07a19.8,19.8,0,0,1,4.61,1.4,7.78,7.78,0,0,1,3.33,2.78,5.32,5.32,0,0,1,.81,2.83,6.47,6.47,0,0,1-2.88,5.18,10.42,10.42,0,0,1-6.17,1.9,14.31,14.31,0,0,1-8.55-3.34A1.76,1.76,0,0,1,98.25,99.07Z" style="fill:#ebebeb"></path><path d="M120.19,99.07a1.74,1.74,0,0,1,2.44-.24A10.81,10.81,0,0,0,129,101.4a7.24,7.24,0,0,0,4.18-1.23,3,3,0,0,0,1.43-2.41,1.94,1.94,0,0,0-.3-1.07,3.25,3.25,0,0,0-1-1,13.5,13.5,0,0,0-4.57-1.57h-.07a18.12,18.12,0,0,1-4.31-1.3,7.11,7.11,0,0,1-3.1-2.6,5.17,5.17,0,0,1-.77-2.74,6.18,6.18,0,0,1,2.67-4.88,9.92,9.92,0,0,1,5.78-1.77,13.06,13.06,0,0,1,7.28,2.68,1.72,1.72,0,0,1,.46,2.37,1.69,1.69,0,0,1-2.37.5c-1.7-1.14-3.34-2.14-5.37-2.14a6.41,6.41,0,0,0-3.74,1.13,2.68,2.68,0,0,0-1.27,2.11,1.65,1.65,0,0,0,.23.93,3.26,3.26,0,0,0,.9.87,11.45,11.45,0,0,0,4.18,1.47h.06a19.5,19.5,0,0,1,4.61,1.4,7.81,7.81,0,0,1,3.34,2.78,5.4,5.4,0,0,1,.8,2.83,6.46,6.46,0,0,1-2.87,5.18,10.47,10.47,0,0,1-6.18,1.9,14.37,14.37,0,0,1-8.55-3.34A1.77,1.77,0,0,1,120.19,99.07Z" style="fill:#ebebeb"></path><rect x="219.2" y="238.54" width="99.38" height="63.4" style="fill:#fff"></rect><path d="M319.21,302.57H218.57V237.91H319.21Zm-99.38-1.26H318V239.17H219.83Z" style="fill:#ebebeb"></path><rect x="219.2" y="238.54" width="99.38" height="11.99" style="fill:#0CDB09"></rect><path d="M319.21,251.16H218.57V237.91H319.21Zm-99.38-1.26H318V239.17H219.83Z" style="fill:#ebebeb"></path><path d="M230.46,244.62a3,3,0,1,1-3-3A3,3,0,0,1,230.46,244.62Z" style="fill:#a6a6a6"></path><path d="M242.78,244.62a3,3,0,1,1-3-3A3,3,0,0,1,242.78,244.62Z" style="fill:#ebebeb"></path><path d="M255.1,244.62a3,3,0,1,1-3-3A3,3,0,0,1,255.1,244.62Z" style="fill:#fff"></path><path d="M237.76,274.24a12.25,12.25,0,0,1,12.25-12,12.49,12.49,0,0,1,7.72,2.6,2,2,0,0,1,.33,2.67,2,2,0,0,1-2.67.37A8.35,8.35,0,0,0,250,266a8.85,8.85,0,0,0-6,2.41,8.24,8.24,0,0,0-2.44,5.81,8.13,8.13,0,0,0,2.44,5.81,8.84,8.84,0,0,0,6,2.4,8.37,8.37,0,0,0,5.38-1.84,2,2,0,0,1,2.67.37,2,2,0,0,1-.33,2.67,12.5,12.5,0,0,1-7.72,2.61A12.21,12.21,0,0,1,237.76,274.24Z" style="fill:#ebebeb"></path><path d="M269.78,276.34H265a1.84,1.84,0,1,1,0-3.67h4.74V268a1.9,1.9,0,1,1,3.8,0v4.64h4.75a1.84,1.84,0,0,1,0,3.67h-4.75V281a1.9,1.9,0,1,1-3.8,0Z" style="fill:#ebebeb"></path><path d="M290.48,276.34h-4.74a1.84,1.84,0,1,1,0-3.67h4.74V268a1.88,1.88,0,0,1,1.9-1.91,1.91,1.91,0,0,1,1.91,1.91v4.64H299a1.84,1.84,0,0,1,0,3.67h-4.74V281a1.91,1.91,0,0,1-1.91,1.91,1.88,1.88,0,0,1-1.9-1.91Z" style="fill:#ebebeb"></path><rect x="106.49" y="116.73" width="165.74" height="136.11" style="fill:#fff"></rect><path d="M272.86,253.48h-167V116.11h167Zm-165.74-1.26H271.6V117.36H107.12Z" style="fill:#ebebeb"></path><rect x="106.49" y="116.73" width="165.74" height="11.99" style="fill:#0CDB09"></rect><path d="M272.86,129.35h-167V116.11h167Zm-165.74-1.26H271.6V117.36H107.12Z" style="fill:#ebebeb"></path><path d="M117.74,122.82a3,3,0,1,1-3-3A3,3,0,0,1,117.74,122.82Z" style="fill:#a6a6a6"></path><path d="M130.06,122.82a3,3,0,1,1-3-3A3,3,0,0,1,130.06,122.82Z" style="fill:#ebebeb"></path><path d="M142.39,122.82a3,3,0,1,1-3-3A3,3,0,0,1,142.39,122.82Z" style="fill:#fff"></path><rect x="119.35" y="152.57" width="6.41" height="2.34" style="fill:#ebebeb"></rect><rect x="130.43" y="152.57" width="73.53" height="2.34" style="fill:#ebebeb"></rect><rect x="207.9" y="152.57" width="12.17" height="2.34" style="fill:#0CDB09"></rect><rect x="235.74" y="183.9" width="12.18" height="2.34" style="fill:#ebebeb"></rect><rect x="222.72" y="152.57" width="21.05" height="2.34" style="fill:#a6a6a6"></rect><rect x="125.76" y="158.84" width="6.41" height="2.34" style="fill:#ebebeb"></rect><rect x="136.68" y="158.84" width="48.25" height="2.34" style="fill:#a6a6a6"></rect><rect x="204.6" y="183.9" width="28.25" height="2.34" style="fill:#a6a6a6"></rect><rect x="130.43" y="177.64" width="46.09" height="2.34" style="fill:#a6a6a6"></rect><rect x="136.68" y="165.1" width="32.33" height="2.34" style="fill:#0CDB09"></rect><rect x="216.04" y="171.37" width="12.33" height="2.34" style="fill:#a6a6a6"></rect><rect x="172.6" y="165.1" width="51.63" height="2.34" style="fill:#a6a6a6"></rect><rect x="130.43" y="183.9" width="61.63" height="2.34" style="fill:#0CDB09"></rect><rect x="221.36" y="158.84" width="33.4" height="2.34" style="fill:#0CDB09"></rect><rect x="187.96" y="158.84" width="30.75" height="2.34" style="fill:#ebebeb"></rect><rect x="226.66" y="165.1" width="20.75" height="2.34" style="fill:#ebebeb"></rect><rect x="125.76" y="165.1" width="6.41" height="2.34" style="fill:#ebebeb"></rect><rect x="119.35" y="171.37" width="6.41" height="2.34" style="fill:#a6a6a6"></rect><rect x="130.43" y="171.37" width="37.88" height="2.34" style="fill:#ebebeb"></rect><rect x="136.68" y="190.17" width="37.88" height="2.34" style="fill:#ebebeb"></rect><rect x="207.32" y="196.44" width="28.8" height="2.34" style="fill:#0CDB09"></rect><rect x="177.64" y="190.17" width="37.99" height="2.34" style="fill:#0CDB09"></rect><rect x="170.94" y="196.44" width="33.07" height="2.34" style="fill:#ebebeb"></rect><rect x="136.68" y="196.44" width="10.97" height="2.34" style="fill:#a6a6a6"></rect><rect x="179.13" y="177.64" width="40.94" height="2.34" style="fill:#ebebeb"></rect><rect x="222.72" y="177.64" width="26.05" height="2.34" style="fill:#0CDB09"></rect><rect x="172.16" y="171.37" width="40.89" height="2.34" style="fill:#0CDB09"></rect><rect x="119.35" y="177.64" width="6.41" height="2.34" style="fill:#ebebeb"></rect><rect x="119.35" y="183.9" width="6.41" height="2.34" style="fill:#ebebeb"></rect><rect x="125.76" y="190.17" width="6.41" height="2.34" style="fill:#a6a6a6"></rect><rect x="125.76" y="196.44" width="6.41" height="2.34" style="fill:#ebebeb"></rect><rect x="119.35" y="201.68" width="6.41" height="2.34" style="fill:#ebebeb"></rect><rect x="130.43" y="201.68" width="73.53" height="2.34" style="fill:#ebebeb"></rect><rect x="125.76" y="207.95" width="6.41" height="2.34" style="fill:#ebebeb"></rect><rect x="136.68" y="207.95" width="48.25" height="2.34" style="fill:#a6a6a6"></rect><rect x="130.43" y="226.75" width="46.09" height="2.34" style="fill:#a6a6a6"></rect><rect x="136.68" y="214.22" width="32.33" height="2.34" style="fill:#0CDB09"></rect><rect x="172.6" y="214.22" width="51.63" height="2.34" style="fill:#a6a6a6"></rect><rect x="130.43" y="233.01" width="61.63" height="2.34" style="fill:#0CDB09"></rect><rect x="221.36" y="207.95" width="33.4" height="2.34" style="fill:#0CDB09"></rect><rect x="187.96" y="207.95" width="30.75" height="2.34" style="fill:#ebebeb"></rect><rect x="226.66" y="214.22" width="20.75" height="2.34" style="fill:#ebebeb"></rect><rect x="125.76" y="214.22" width="6.41" height="2.34" style="fill:#ebebeb"></rect><rect x="119.35" y="220.48" width="6.41" height="2.34" style="fill:#a6a6a6"></rect><rect x="130.43" y="220.48" width="37.88" height="2.34" style="fill:#ebebeb"></rect><rect x="179.13" y="226.75" width="40.94" height="2.34" style="fill:#ebebeb"></rect><rect x="172.16" y="220.48" width="40.89" height="2.34" style="fill:#0CDB09"></rect><rect x="119.35" y="226.75" width="6.41" height="2.34" style="fill:#ebebeb"></rect><path d="M123.31,146.41a.56.56,0,0,1,0,.79.57.57,0,0,1-.79,0l-2.47-2.51a.08.08,0,0,1,0-.05l0,0a.21.21,0,0,1,0-.07l0,0a.15.15,0,0,1,0-.06s0,0,0,0v-.06s0,0,0-.06,0,0,0,0v-.06s0,0,0,0a.2.2,0,0,1,0-.07h0s0-.07,0-.08,0,0,0,0a.12.12,0,0,1,.06-.06l2.47-2.51a.57.57,0,0,1,.79,0,.56.56,0,0,1,0,.79l-2.08,2.1Z" style="fill:#0CDB09"></path><path d="M125.55,146.69l2.16-5.13a.48.48,0,1,1,.89.37l-2.16,5.14a.49.49,0,0,1-.45.29.35.35,0,0,1-.17,0A.47.47,0,0,1,125.55,146.69Z" style="fill:#0CDB09"></path><path d="M132.85,144.62h0a.17.17,0,0,1-.06.06l-2.47,2.51a.61.61,0,0,1-.4.16.57.57,0,0,1-.39-.16.56.56,0,0,1,0-.79l2.08-2.11-2.08-2.1a.56.56,0,0,1,0-.79.57.57,0,0,1,.79,0l2.47,2.51a.12.12,0,0,1,.06.06s0,0,0,0a.35.35,0,0,1,.05.08h0a.26.26,0,0,0,0,.08s0,0,0,0v.06s0,0,0,0v.12s0,0,0,0a.41.41,0,0,0,0,.08v0Z" style="fill:#0CDB09"></path><rect x="223.43" y="97.65" width="67.7" height="25.07" style="fill:#455a64"></rect><path d="M233.2,115.38V104.26a1,1,0,0,1,1-1,1,1,0,0,1,1.06,1v4.52h4.88v-4.52a1,1,0,0,1,1-1,1,1,0,0,1,1.06,1v11.12a1,1,0,0,1-1.06,1,1,1,0,0,1-1-1v-4.52h-4.88v4.52a1,1,0,0,1-1.06,1A1,1,0,0,1,233.2,115.38Z" style="fill:#fff"></path><path d="M254.62,105.32h-3v10.06a1,1,0,1,1-2.08,0V105.32h-3a1,1,0,0,1-1-1.06,1,1,0,0,1,1-1h8a1,1,0,0,1,1,1A1.06,1.06,0,0,1,254.62,105.32Z" style="fill:#fff"></path><path d="M270.11,104.26v11.12a1.07,1.07,0,0,1-1.06,1,1,1,0,0,1-1-1v-7.93l-2.72,3.77a1,1,0,0,1-.84.43h0a1.08,1.08,0,0,1-.87-.43l-2.69-3.77v7.93a1,1,0,0,1-2.09,0V104.26a1,1,0,0,1,1-1h.06a1,1,0,0,1,.83.43l3.75,5.2,3.75-5.2a1,1,0,0,1,.85-.43h0A1.07,1.07,0,0,1,270.11,104.26Z" style="fill:#fff"></path><path d="M274.67,115.38V104.26a1,1,0,0,1,1-1,1,1,0,0,1,1.05,1v10.06h5.11a1.05,1.05,0,0,1,0,2.1h-6.16A1,1,0,0,1,274.67,115.38Z" style="fill:#fff"></path><rect x="54.43" y="193.41" width="55.79" height="25.07" style="fill:#455a64"></rect><path d="M71,207.06H68.71v4.09a1,1,0,0,1-2.09,0V200a1,1,0,0,1,1-1H71a4,4,0,1,1,0,8.06ZM68.71,205H71a1.94,1.94,0,1,0,0-3.88H68.71Z" style="fill:#fff"></path><path d="M77.6,211.15V200a1,1,0,0,1,1-1,1,1,0,0,1,1,1v4.52h4.88V200a1,1,0,0,1,1-1,1,1,0,0,1,1.06,1v11.12a1,1,0,0,1-1.06,1,1,1,0,0,1-1-1v-4.52H79.69v4.52a1,1,0,0,1-1,1A1,1,0,0,1,77.6,211.15Z" style="fill:#fff"></path><path d="M95.37,207.06H93.05v4.09a1,1,0,0,1-2.09,0V200a1,1,0,0,1,1-1h3.37a4,4,0,1,1,0,8.06ZM93.05,205h2.32a1.94,1.94,0,1,0,0-3.88H93.05Z" style="fill:#fff"></path><polygon points="274.67 191.78 278.9 202 274.67 203.75 270.42 193.46 263.43 198.88 263.43 170.09 283.59 190.45 274.67 191.78" style="fill:#263238"></polygon><path d="M263.43,167a3.94,3.94,0,0,1-.26-1.45,3.71,3.71,0,0,1,.26-1.45,3.7,3.7,0,0,1,.25,1.45A3.92,3.92,0,0,1,263.43,167Z" style="fill:#263238"></path><path d="M260.93,168a4,4,0,0,1-1.2-.84,3.6,3.6,0,0,1-.84-1.21,3.84,3.84,0,0,1,1.2.85A3.56,3.56,0,0,1,260.93,168Z" style="fill:#263238"></path><path d="M259.9,170.47a4.15,4.15,0,0,1-2.89,0,4.3,4.3,0,0,1,2.89,0Z" style="fill:#263238"></path><path d="M260.93,173a3.56,3.56,0,0,1-.84,1.2,3.84,3.84,0,0,1-1.2.85,3.6,3.6,0,0,1,.84-1.21A4,4,0,0,1,260.93,173Z" style="fill:#263238"></path><path d="M267,170.47a4.33,4.33,0,0,1,2.9,0,4.17,4.17,0,0,1-2.9,0Z" style="fill:#263238"></path><path d="M265.92,168a3.86,3.86,0,0,1,.84-1.2,3.77,3.77,0,0,1,1.21-.85,4.15,4.15,0,0,1-2.05,2Z" style="fill:#263238"></path></g><g id="freepik--Device--inject-15"><rect x="241.48" y="405.98" width="7.18" height="4.69" transform="translate(490.14 816.64) rotate(180)" style="fill:#455a64"></rect><rect x="232.16" y="405.67" width="7.18" height="4.69" transform="translate(471.51 816.02) rotate(180)" style="fill:#455a64"></rect><rect x="222.85" y="405.36" width="7.18" height="4.69" transform="translate(452.88 815.4) rotate(180)" style="fill:#455a64"></rect><rect x="213.53" y="405.05" width="7.18" height="4.69" transform="translate(434.25 814.78) rotate(180)" style="fill:#455a64"></rect><rect x="204.22" y="404.74" width="7.18" height="4.69" transform="translate(415.62 814.16) rotate(180)" style="fill:#455a64"></rect><rect x="194.9" y="404.43" width="7.18" height="4.69" transform="translate(396.99 813.54) rotate(180)" style="fill:#455a64"></rect><rect x="185.59" y="404.12" width="7.18" height="4.69" transform="translate(378.36 812.92) rotate(180)" style="fill:#455a64"></rect><rect x="176.27" y="403.81" width="7.18" height="4.69" transform="translate(359.73 812.3) rotate(180)" style="fill:#455a64"></rect><rect x="166.96" y="403.5" width="7.18" height="4.69" transform="translate(341.1 811.68) rotate(180)" style="fill:#455a64"></rect><polygon points="165.2 413.36 250.42 413.36 250.42 407.66 165.2 405.28 165.2 413.36" style="fill:#37474f"></polygon><polygon points="82.03 390.86 222.71 390.86 200.34 286.12 59.65 286.12 82.03 390.86" style="fill:#455a64"></polygon><polygon points="76.82 390.86 217.51 390.86 195.13 286.12 54.45 286.12 76.82 390.86" style="fill:#37474f"></polygon><path d="M123.82,332.42a10.58,10.58,0,0,0,10.08,8.7,7.24,7.24,0,0,0,7.32-8.7,10.61,10.61,0,0,0-10.08-8.7A7.24,7.24,0,0,0,123.82,332.42Z" style="fill:#263238"></path><polygon points="116.61 418.21 185.8 418.21 185.8 412.84 116.61 410.6 116.61 418.21" style="fill:#455a64"></polygon><polygon points="97.8 418.2 134.95 418.2 157.32 359.52 120.17 359.52 97.8 418.2" style="fill:#455a64"></polygon><polygon points="91.68 418.2 128.83 418.2 151.21 359.52 114.06 359.52 91.68 418.2" style="fill:#263238"></polygon><path d="M253.05,419.64h71.34c6.09,0-2.72-17.33-24.94-24S246,413.14,253.05,419.64Z" style="fill:#37474f"></path><path d="M281.05,419.64a43.21,43.21,0,0,0-1.73-5.56,33.34,33.34,0,0,0-2.53-5.16,24.68,24.68,0,0,0-3.46-4.56l-1-1-1.11-.93c-.7-.68-1.57-1.12-2.34-1.74a17,17,0,0,1,5,3.13,19.46,19.46,0,0,1,3.78,4.6,25.11,25.11,0,0,1,2.41,5.43A22.6,22.6,0,0,1,281.05,419.64Z" style="fill:#263238"></path><path d="M272.59,403.15c-1,.52-1.95,1-2.91,1.57s-1.93,1.07-2.87,1.63c-1.88,1.13-3.75,2.27-5.52,3.55a33.82,33.82,0,0,0-5,4.19,14.83,14.83,0,0,0-2,2.55,9.42,9.42,0,0,0-1.28,3,8.38,8.38,0,0,1,.85-3.23,15.43,15.43,0,0,1,1.84-2.83,25.89,25.89,0,0,1,5-4.5,46.29,46.29,0,0,1,11.88-5.93Z" style="fill:#263238"></path></g></svg>